<mxfile host="Electron" modified="2023-11-15T21:34:31.629Z" agent="Mozilla/5.0 (Windows NT 10.0; Win64; x64) AppleWebKit/537.36 (KHTML, like Gecko) draw.io/22.0.3 Chrome/114.0.5735.289 Electron/25.8.4 Safari/537.36" etag="6umz03NfLw8NDGn9jQvc" version="22.0.3" type="device">
  <diagram name="Page-1" id="qdFyxSqgyczc50ukwJnV">
    <mxGraphModel dx="1276" dy="2814" grid="1" gridSize="10" guides="1" tooltips="1" connect="1" arrows="1" fold="1" page="1" pageScale="1" pageWidth="850" pageHeight="1100" math="0" shadow="0">
      <root>
        <mxCell id="0" />
        <mxCell id="1" parent="0" />
        <mxCell id="k9qatuvnpu8ZYcSoqn7l-1" value="Registered User" style="shape=umlActor;verticalLabelPosition=bottom;verticalAlign=top;html=1;outlineConnect=0;" parent="1" vertex="1">
          <mxGeometry x="70" y="440" width="30" height="60" as="geometry" />
        </mxCell>
        <mxCell id="k9qatuvnpu8ZYcSoqn7l-3" value="User" style="shape=umlActor;verticalLabelPosition=bottom;verticalAlign=top;html=1;outlineConnect=0;" parent="1" vertex="1">
          <mxGeometry x="70" y="240" width="30" height="60" as="geometry" />
        </mxCell>
        <mxCell id="k9qatuvnpu8ZYcSoqn7l-4" value="IS- A" style="endArrow=block;endSize=16;endFill=0;html=1;rounded=0;" parent="1" edge="1">
          <mxGeometry width="160" relative="1" as="geometry">
            <mxPoint x="84.5" y="420" as="sourcePoint" />
            <mxPoint x="84.5" y="330" as="targetPoint" />
          </mxGeometry>
        </mxCell>
        <mxCell id="k9qatuvnpu8ZYcSoqn7l-5" value="Receive Monthly Promo News and other Membership Benefits" style="ellipse;whiteSpace=wrap;html=1;" parent="1" vertex="1">
          <mxGeometry x="340" y="600" width="120" height="80" as="geometry" />
        </mxCell>
        <mxCell id="k9qatuvnpu8ZYcSoqn7l-8" value="" style="endArrow=none;html=1;rounded=0;exitX=1;exitY=0.3333333333333333;exitDx=0;exitDy=0;exitPerimeter=0;entryX=0;entryY=0.5;entryDx=0;entryDy=0;" parent="1" source="k9qatuvnpu8ZYcSoqn7l-1" target="k9qatuvnpu8ZYcSoqn7l-5" edge="1">
          <mxGeometry width="50" height="50" relative="1" as="geometry">
            <mxPoint x="520" y="650" as="sourcePoint" />
            <mxPoint x="570" y="600" as="targetPoint" />
          </mxGeometry>
        </mxCell>
        <mxCell id="k9qatuvnpu8ZYcSoqn7l-10" value="System Admin" style="shape=umlActor;verticalLabelPosition=bottom;verticalAlign=top;html=1;outlineConnect=0;" parent="1" vertex="1">
          <mxGeometry x="750" y="410" width="30" height="60" as="geometry" />
        </mxCell>
        <mxCell id="k9qatuvnpu8ZYcSoqn7l-11" value="" style="endArrow=none;html=1;rounded=0;exitX=1;exitY=0.5;exitDx=0;exitDy=0;entryX=0;entryY=0.3333333333333333;entryDx=0;entryDy=0;entryPerimeter=0;" parent="1" source="k9qatuvnpu8ZYcSoqn7l-5" target="k9qatuvnpu8ZYcSoqn7l-10" edge="1">
          <mxGeometry width="50" height="50" relative="1" as="geometry">
            <mxPoint x="520" y="650" as="sourcePoint" />
            <mxPoint x="570" y="600" as="targetPoint" />
          </mxGeometry>
        </mxCell>
        <mxCell id="k9qatuvnpu8ZYcSoqn7l-15" value="Login" style="ellipse;whiteSpace=wrap;html=1;" parent="1" vertex="1">
          <mxGeometry x="340" y="490" width="120" height="80" as="geometry" />
        </mxCell>
        <mxCell id="k9qatuvnpu8ZYcSoqn7l-16" value="" style="endArrow=none;html=1;rounded=0;exitX=1;exitY=0.3333333333333333;exitDx=0;exitDy=0;exitPerimeter=0;entryX=0;entryY=0.5;entryDx=0;entryDy=0;" parent="1" source="k9qatuvnpu8ZYcSoqn7l-1" target="k9qatuvnpu8ZYcSoqn7l-15" edge="1">
          <mxGeometry width="50" height="50" relative="1" as="geometry">
            <mxPoint x="520" y="650" as="sourcePoint" />
            <mxPoint x="570" y="600" as="targetPoint" />
          </mxGeometry>
        </mxCell>
        <mxCell id="k9qatuvnpu8ZYcSoqn7l-17" value="" style="endArrow=none;html=1;rounded=0;exitX=1;exitY=0.5;exitDx=0;exitDy=0;entryX=0;entryY=0.3333333333333333;entryDx=0;entryDy=0;entryPerimeter=0;" parent="1" source="k9qatuvnpu8ZYcSoqn7l-15" target="k9qatuvnpu8ZYcSoqn7l-10" edge="1">
          <mxGeometry width="50" height="50" relative="1" as="geometry">
            <mxPoint x="520" y="650" as="sourcePoint" />
            <mxPoint x="570" y="600" as="targetPoint" />
          </mxGeometry>
        </mxCell>
        <mxCell id="k9qatuvnpu8ZYcSoqn7l-18" value="" style="endArrow=none;html=1;rounded=0;exitX=1;exitY=0.3333333333333333;exitDx=0;exitDy=0;exitPerimeter=0;" parent="1" source="k9qatuvnpu8ZYcSoqn7l-10" target="k9qatuvnpu8ZYcSoqn7l-19" edge="1">
          <mxGeometry width="50" height="50" relative="1" as="geometry">
            <mxPoint x="650" y="620" as="sourcePoint" />
            <mxPoint x="850" y="430" as="targetPoint" />
          </mxGeometry>
        </mxCell>
        <mxCell id="k9qatuvnpu8ZYcSoqn7l-19" value="Retrieve Data" style="ellipse;whiteSpace=wrap;html=1;" parent="1" vertex="1">
          <mxGeometry x="830" y="390" width="120" height="80" as="geometry" />
        </mxCell>
        <mxCell id="k9qatuvnpu8ZYcSoqn7l-20" value="Database" style="shape=umlActor;verticalLabelPosition=bottom;verticalAlign=top;html=1;outlineConnect=0;" parent="1" vertex="1">
          <mxGeometry x="1020" y="410" width="30" height="60" as="geometry" />
        </mxCell>
        <mxCell id="k9qatuvnpu8ZYcSoqn7l-21" value="" style="endArrow=none;html=1;rounded=0;entryX=0;entryY=0.3333333333333333;entryDx=0;entryDy=0;entryPerimeter=0;exitX=1;exitY=0.5;exitDx=0;exitDy=0;" parent="1" source="k9qatuvnpu8ZYcSoqn7l-19" target="k9qatuvnpu8ZYcSoqn7l-20" edge="1">
          <mxGeometry width="50" height="50" relative="1" as="geometry">
            <mxPoint x="650" y="620" as="sourcePoint" />
            <mxPoint x="700" y="570" as="targetPoint" />
          </mxGeometry>
        </mxCell>
        <mxCell id="k9qatuvnpu8ZYcSoqn7l-22" value="Select Flights" style="ellipse;whiteSpace=wrap;html=1;" parent="1" vertex="1">
          <mxGeometry x="340" y="-390" width="120" height="80" as="geometry" />
        </mxCell>
        <mxCell id="k9qatuvnpu8ZYcSoqn7l-24" value="Select Seat" style="ellipse;whiteSpace=wrap;html=1;" parent="1" vertex="1">
          <mxGeometry x="340" y="-150" width="120" height="80" as="geometry" />
        </mxCell>
        <mxCell id="k9qatuvnpu8ZYcSoqn7l-25" value="Make Payment" style="ellipse;whiteSpace=wrap;html=1;" parent="1" vertex="1">
          <mxGeometry x="340" y="40" width="120" height="80" as="geometry" />
        </mxCell>
        <mxCell id="k9qatuvnpu8ZYcSoqn7l-26" value="Cancel Flight" style="ellipse;whiteSpace=wrap;html=1;" parent="1" vertex="1">
          <mxGeometry x="340" y="390" width="120" height="80" as="geometry" />
        </mxCell>
        <mxCell id="k9qatuvnpu8ZYcSoqn7l-28" value="Send Cancellation Email" style="ellipse;whiteSpace=wrap;html=1;" parent="1" vertex="1">
          <mxGeometry x="200" y="240" width="120" height="80" as="geometry" />
        </mxCell>
        <mxCell id="k9qatuvnpu8ZYcSoqn7l-32" value="Browse Seat Map" style="ellipse;whiteSpace=wrap;html=1;" parent="1" vertex="1">
          <mxGeometry x="340" y="-270" width="120" height="80" as="geometry" />
        </mxCell>
        <mxCell id="k9qatuvnpu8ZYcSoqn7l-33" value="Browse Flights" style="ellipse;whiteSpace=wrap;html=1;" parent="1" vertex="1">
          <mxGeometry x="340" y="-480" width="120" height="80" as="geometry" />
        </mxCell>
        <mxCell id="k9qatuvnpu8ZYcSoqn7l-37" value="Add/remove crew" style="ellipse;whiteSpace=wrap;html=1;" parent="1" vertex="1">
          <mxGeometry x="365" y="-710" width="120" height="80" as="geometry" />
        </mxCell>
        <mxCell id="k9qatuvnpu8ZYcSoqn7l-38" value="Add/remove aircraft" style="ellipse;whiteSpace=wrap;html=1;" parent="1" vertex="1">
          <mxGeometry x="240" y="-650" width="120" height="80" as="geometry" />
        </mxCell>
        <mxCell id="k9qatuvnpu8ZYcSoqn7l-39" value="Add/remove flight destinations" style="ellipse;whiteSpace=wrap;html=1;" parent="1" vertex="1">
          <mxGeometry x="130" y="-720" width="120" height="80" as="geometry" />
        </mxCell>
        <mxCell id="k9qatuvnpu8ZYcSoqn7l-40" value="Add/remove/modify flight information" style="ellipse;whiteSpace=wrap;html=1;" parent="1" vertex="1">
          <mxGeometry x="360" y="-850" width="120" height="80" as="geometry" />
        </mxCell>
        <mxCell id="k9qatuvnpu8ZYcSoqn7l-41" value="Print User List" style="ellipse;whiteSpace=wrap;html=1;" parent="1" vertex="1">
          <mxGeometry x="360" y="-1150" width="120" height="80" as="geometry" />
        </mxCell>
        <mxCell id="k9qatuvnpu8ZYcSoqn7l-42" value="Browse List of Passengers" style="ellipse;whiteSpace=wrap;html=1;" parent="1" vertex="1">
          <mxGeometry x="340" y="-570" width="120" height="80" as="geometry" />
        </mxCell>
        <mxCell id="k9qatuvnpu8ZYcSoqn7l-43" value="" style="endArrow=none;html=1;rounded=0;entryX=1;entryY=0.3333333333333333;entryDx=0;entryDy=0;entryPerimeter=0;exitX=0;exitY=0.5;exitDx=0;exitDy=0;" parent="1" source="k9qatuvnpu8ZYcSoqn7l-26" target="k9qatuvnpu8ZYcSoqn7l-3" edge="1">
          <mxGeometry width="50" height="50" relative="1" as="geometry">
            <mxPoint x="180" y="430" as="sourcePoint" />
            <mxPoint x="140" y="300" as="targetPoint" />
          </mxGeometry>
        </mxCell>
        <mxCell id="k9qatuvnpu8ZYcSoqn7l-44" value="" style="endArrow=none;html=1;rounded=0;exitX=1;exitY=0.5;exitDx=0;exitDy=0;entryX=0;entryY=0.3333333333333333;entryDx=0;entryDy=0;entryPerimeter=0;" parent="1" source="k9qatuvnpu8ZYcSoqn7l-26" target="k9qatuvnpu8ZYcSoqn7l-10" edge="1">
          <mxGeometry width="50" height="50" relative="1" as="geometry">
            <mxPoint x="600" y="550" as="sourcePoint" />
            <mxPoint x="650" y="500" as="targetPoint" />
          </mxGeometry>
        </mxCell>
        <mxCell id="k9qatuvnpu8ZYcSoqn7l-45" value="Select Cancellation Insurance" style="ellipse;whiteSpace=wrap;html=1;" parent="1" vertex="1">
          <mxGeometry x="510" y="330" width="120" height="80" as="geometry" />
        </mxCell>
        <mxCell id="k9qatuvnpu8ZYcSoqn7l-46" value="Extends" style="endArrow=open;endSize=12;dashed=1;html=1;rounded=0;exitX=0;exitY=1;exitDx=0;exitDy=0;entryX=1;entryY=0;entryDx=0;entryDy=0;" parent="1" source="k9qatuvnpu8ZYcSoqn7l-45" target="k9qatuvnpu8ZYcSoqn7l-26" edge="1">
          <mxGeometry width="160" relative="1" as="geometry">
            <mxPoint x="540" y="480" as="sourcePoint" />
            <mxPoint x="700" y="480" as="targetPoint" />
          </mxGeometry>
        </mxCell>
        <mxCell id="k9qatuvnpu8ZYcSoqn7l-47" value="Receive Ticket&amp;nbsp;" style="ellipse;whiteSpace=wrap;html=1;" parent="1" vertex="1">
          <mxGeometry x="340" y="150" width="120" height="80" as="geometry" />
        </mxCell>
        <mxCell id="k9qatuvnpu8ZYcSoqn7l-48" value="Receive Receipt" style="ellipse;whiteSpace=wrap;html=1;" parent="1" vertex="1">
          <mxGeometry x="340" y="290" width="120" height="80" as="geometry" />
        </mxCell>
        <mxCell id="k9qatuvnpu8ZYcSoqn7l-49" value="" style="endArrow=none;html=1;rounded=0;exitX=1;exitY=0.3333333333333333;exitDx=0;exitDy=0;exitPerimeter=0;entryX=0;entryY=0.5;entryDx=0;entryDy=0;" parent="1" source="k9qatuvnpu8ZYcSoqn7l-3" target="k9qatuvnpu8ZYcSoqn7l-33" edge="1">
          <mxGeometry width="50" height="50" relative="1" as="geometry">
            <mxPoint x="600" y="170" as="sourcePoint" />
            <mxPoint x="650" y="120" as="targetPoint" />
          </mxGeometry>
        </mxCell>
        <mxCell id="k9qatuvnpu8ZYcSoqn7l-50" value="" style="endArrow=none;html=1;rounded=0;exitX=1;exitY=0.3333333333333333;exitDx=0;exitDy=0;exitPerimeter=0;entryX=0;entryY=0.5;entryDx=0;entryDy=0;" parent="1" source="k9qatuvnpu8ZYcSoqn7l-3" target="k9qatuvnpu8ZYcSoqn7l-22" edge="1">
          <mxGeometry width="50" height="50" relative="1" as="geometry">
            <mxPoint x="600" y="270" as="sourcePoint" />
            <mxPoint x="650" y="220" as="targetPoint" />
          </mxGeometry>
        </mxCell>
        <mxCell id="k9qatuvnpu8ZYcSoqn7l-51" value="Includes" style="endArrow=open;endSize=12;dashed=1;html=1;rounded=0;exitX=0.5;exitY=1;exitDx=0;exitDy=0;entryX=0.5;entryY=0;entryDx=0;entryDy=0;" parent="1" source="k9qatuvnpu8ZYcSoqn7l-22" target="k9qatuvnpu8ZYcSoqn7l-32" edge="1">
          <mxGeometry width="160" relative="1" as="geometry">
            <mxPoint x="540" y="-160" as="sourcePoint" />
            <mxPoint x="700" y="-160" as="targetPoint" />
          </mxGeometry>
        </mxCell>
        <mxCell id="k9qatuvnpu8ZYcSoqn7l-52" value="Includes" style="endArrow=open;endSize=12;dashed=1;html=1;rounded=0;exitX=0.5;exitY=1;exitDx=0;exitDy=0;entryX=0.5;entryY=0;entryDx=0;entryDy=0;" parent="1" source="k9qatuvnpu8ZYcSoqn7l-32" target="k9qatuvnpu8ZYcSoqn7l-24" edge="1">
          <mxGeometry width="160" relative="1" as="geometry">
            <mxPoint x="540" y="-160" as="sourcePoint" />
            <mxPoint x="700" y="-160" as="targetPoint" />
          </mxGeometry>
        </mxCell>
        <mxCell id="k9qatuvnpu8ZYcSoqn7l-53" value="" style="endArrow=block;endSize=16;endFill=0;html=1;rounded=0;exitX=0.5;exitY=0;exitDx=0;exitDy=0;entryX=0.497;entryY=1.095;entryDx=0;entryDy=0;entryPerimeter=0;" parent="1" source="k9qatuvnpu8ZYcSoqn7l-25" target="k9qatuvnpu8ZYcSoqn7l-24" edge="1">
          <mxGeometry width="160" relative="1" as="geometry">
            <mxPoint x="540" y="-60" as="sourcePoint" />
            <mxPoint x="700" y="-60" as="targetPoint" />
          </mxGeometry>
        </mxCell>
        <mxCell id="k9qatuvnpu8ZYcSoqn7l-55" value="Includes" style="endArrow=open;endSize=12;dashed=1;html=1;rounded=0;exitX=0.5;exitY=1;exitDx=0;exitDy=0;entryX=0.5;entryY=0;entryDx=0;entryDy=0;" parent="1" source="k9qatuvnpu8ZYcSoqn7l-25" target="k9qatuvnpu8ZYcSoqn7l-47" edge="1">
          <mxGeometry width="160" relative="1" as="geometry">
            <mxPoint x="290" y="140" as="sourcePoint" />
            <mxPoint x="290" y="200" as="targetPoint" />
          </mxGeometry>
        </mxCell>
        <mxCell id="k9qatuvnpu8ZYcSoqn7l-56" value="Includes" style="endArrow=open;endSize=12;dashed=1;html=1;rounded=0;entryX=0.5;entryY=0;entryDx=0;entryDy=0;" parent="1" target="k9qatuvnpu8ZYcSoqn7l-48" edge="1">
          <mxGeometry width="160" relative="1" as="geometry">
            <mxPoint x="400" y="220" as="sourcePoint" />
            <mxPoint x="410" y="150" as="targetPoint" />
          </mxGeometry>
        </mxCell>
        <mxCell id="k9qatuvnpu8ZYcSoqn7l-57" value="" style="endArrow=none;html=1;rounded=0;exitX=1;exitY=0.3333333333333333;exitDx=0;exitDy=0;exitPerimeter=0;entryX=0;entryY=0.5;entryDx=0;entryDy=0;" parent="1" source="k9qatuvnpu8ZYcSoqn7l-3" target="k9qatuvnpu8ZYcSoqn7l-25" edge="1">
          <mxGeometry width="50" height="50" relative="1" as="geometry">
            <mxPoint x="600" y="170" as="sourcePoint" />
            <mxPoint x="650" y="120" as="targetPoint" />
          </mxGeometry>
        </mxCell>
        <mxCell id="k9qatuvnpu8ZYcSoqn7l-58" value="Includes" style="endArrow=open;endSize=12;dashed=1;html=1;rounded=0;exitX=0.077;exitY=0.175;exitDx=0;exitDy=0;entryX=0.67;entryY=1.01;entryDx=0;entryDy=0;entryPerimeter=0;exitPerimeter=0;" parent="1" source="k9qatuvnpu8ZYcSoqn7l-26" target="k9qatuvnpu8ZYcSoqn7l-28" edge="1">
          <mxGeometry width="160" relative="1" as="geometry">
            <mxPoint x="410" y="110" as="sourcePoint" />
            <mxPoint x="410" y="170" as="targetPoint" />
          </mxGeometry>
        </mxCell>
        <mxCell id="k9qatuvnpu8ZYcSoqn7l-60" value="" style="endArrow=none;html=1;rounded=0;exitX=1;exitY=0.5;exitDx=0;exitDy=0;" parent="1" source="k9qatuvnpu8ZYcSoqn7l-25" edge="1">
          <mxGeometry width="50" height="50" relative="1" as="geometry">
            <mxPoint x="600" y="270" as="sourcePoint" />
            <mxPoint x="750" y="430" as="targetPoint" />
          </mxGeometry>
        </mxCell>
        <mxCell id="k9qatuvnpu8ZYcSoqn7l-62" value="Bank" style="shape=umlActor;verticalLabelPosition=bottom;verticalAlign=top;html=1;outlineConnect=0;" parent="1" vertex="1">
          <mxGeometry x="750" y="120" width="30" height="60" as="geometry" />
        </mxCell>
        <mxCell id="k9qatuvnpu8ZYcSoqn7l-63" value="" style="endArrow=none;html=1;rounded=0;" parent="1" edge="1">
          <mxGeometry width="50" height="50" relative="1" as="geometry">
            <mxPoint x="765" y="380" as="sourcePoint" />
            <mxPoint x="765" y="220" as="targetPoint" />
          </mxGeometry>
        </mxCell>
        <mxCell id="k9qatuvnpu8ZYcSoqn7l-64" value="" style="endArrow=none;html=1;rounded=0;exitX=1;exitY=0.5;exitDx=0;exitDy=0;entryX=0;entryY=0.3333333333333333;entryDx=0;entryDy=0;entryPerimeter=0;" parent="1" source="k9qatuvnpu8ZYcSoqn7l-22" target="k9qatuvnpu8ZYcSoqn7l-10" edge="1">
          <mxGeometry width="50" height="50" relative="1" as="geometry">
            <mxPoint x="600" y="-130" as="sourcePoint" />
            <mxPoint x="650" y="-180" as="targetPoint" />
          </mxGeometry>
        </mxCell>
        <mxCell id="k9qatuvnpu8ZYcSoqn7l-65" value="" style="endArrow=none;html=1;rounded=0;entryX=0;entryY=0.3333333333333333;entryDx=0;entryDy=0;entryPerimeter=0;exitX=1;exitY=0.5;exitDx=0;exitDy=0;" parent="1" source="k9qatuvnpu8ZYcSoqn7l-33" target="k9qatuvnpu8ZYcSoqn7l-10" edge="1">
          <mxGeometry width="50" height="50" relative="1" as="geometry">
            <mxPoint x="600" y="270" as="sourcePoint" />
            <mxPoint x="650" y="220" as="targetPoint" />
          </mxGeometry>
        </mxCell>
        <mxCell id="k9qatuvnpu8ZYcSoqn7l-66" value="Airline Agent" style="shape=umlActor;verticalLabelPosition=bottom;verticalAlign=top;html=1;outlineConnect=0;" parent="1" vertex="1">
          <mxGeometry x="70" y="50" width="30" height="60" as="geometry" />
        </mxCell>
        <mxCell id="k9qatuvnpu8ZYcSoqn7l-67" value="" style="endArrow=none;html=1;rounded=0;exitX=1;exitY=0.3333333333333333;exitDx=0;exitDy=0;exitPerimeter=0;entryX=0;entryY=0.5;entryDx=0;entryDy=0;" parent="1" source="k9qatuvnpu8ZYcSoqn7l-66" target="k9qatuvnpu8ZYcSoqn7l-42" edge="1">
          <mxGeometry width="50" height="50" relative="1" as="geometry">
            <mxPoint x="600" y="-130" as="sourcePoint" />
            <mxPoint x="650" y="-180" as="targetPoint" />
          </mxGeometry>
        </mxCell>
        <mxCell id="k9qatuvnpu8ZYcSoqn7l-68" value="" style="endArrow=none;html=1;rounded=0;exitX=1;exitY=0.5;exitDx=0;exitDy=0;entryX=0;entryY=0.3333333333333333;entryDx=0;entryDy=0;entryPerimeter=0;" parent="1" source="k9qatuvnpu8ZYcSoqn7l-42" target="k9qatuvnpu8ZYcSoqn7l-10" edge="1">
          <mxGeometry width="50" height="50" relative="1" as="geometry">
            <mxPoint x="600" y="-230" as="sourcePoint" />
            <mxPoint x="650" y="-280" as="targetPoint" />
          </mxGeometry>
        </mxCell>
        <mxCell id="k9qatuvnpu8ZYcSoqn7l-69" value="Flight Attendent" style="shape=umlActor;verticalLabelPosition=bottom;verticalAlign=top;html=1;outlineConnect=0;" parent="1" vertex="1">
          <mxGeometry x="70" y="-90" width="30" height="60" as="geometry" />
        </mxCell>
        <mxCell id="k9qatuvnpu8ZYcSoqn7l-70" value="" style="endArrow=none;html=1;rounded=0;exitX=1;exitY=0.3333333333333333;exitDx=0;exitDy=0;exitPerimeter=0;entryX=0;entryY=0.5;entryDx=0;entryDy=0;" parent="1" source="k9qatuvnpu8ZYcSoqn7l-69" target="k9qatuvnpu8ZYcSoqn7l-42" edge="1">
          <mxGeometry width="50" height="50" relative="1" as="geometry">
            <mxPoint x="600" y="-130" as="sourcePoint" />
            <mxPoint x="650" y="-180" as="targetPoint" />
          </mxGeometry>
        </mxCell>
        <mxCell id="k9qatuvnpu8ZYcSoqn7l-71" value="" style="endArrow=none;html=1;rounded=0;exitX=1;exitY=0.5;exitDx=0;exitDy=0;" parent="1" source="k9qatuvnpu8ZYcSoqn7l-42" edge="1">
          <mxGeometry width="50" height="50" relative="1" as="geometry">
            <mxPoint x="600" y="-330" as="sourcePoint" />
            <mxPoint x="750" y="430" as="targetPoint" />
          </mxGeometry>
        </mxCell>
        <mxCell id="k9qatuvnpu8ZYcSoqn7l-72" value="Browse Owned Aircraft" style="ellipse;whiteSpace=wrap;html=1;" parent="1" vertex="1">
          <mxGeometry x="360" y="-1050" width="120" height="80" as="geometry" />
        </mxCell>
        <mxCell id="k9qatuvnpu8ZYcSoqn7l-73" value="" style="endArrow=none;html=1;rounded=0;exitX=1.003;exitY=0.615;exitDx=0;exitDy=0;exitPerimeter=0;" parent="1" source="k9qatuvnpu8ZYcSoqn7l-72" edge="1">
          <mxGeometry width="50" height="50" relative="1" as="geometry">
            <mxPoint x="600" y="-630" as="sourcePoint" />
            <mxPoint x="750" y="430" as="targetPoint" />
          </mxGeometry>
        </mxCell>
        <mxCell id="k9qatuvnpu8ZYcSoqn7l-74" value="Browse Flight List on Specifc Date" style="ellipse;whiteSpace=wrap;html=1;" parent="1" vertex="1">
          <mxGeometry x="360" y="-950" width="120" height="80" as="geometry" />
        </mxCell>
        <mxCell id="k9qatuvnpu8ZYcSoqn7l-75" value="Browse Flight Crew on Specifc Date" style="ellipse;whiteSpace=wrap;html=1;" parent="1" vertex="1">
          <mxGeometry x="130" y="-830" width="120" height="80" as="geometry" />
        </mxCell>
        <mxCell id="k9qatuvnpu8ZYcSoqn7l-76" value="Includes" style="endArrow=open;endSize=12;dashed=1;html=1;rounded=0;exitX=0.083;exitY=0.745;exitDx=0;exitDy=0;entryX=1;entryY=0;entryDx=0;entryDy=0;exitPerimeter=0;" parent="1" source="k9qatuvnpu8ZYcSoqn7l-74" target="k9qatuvnpu8ZYcSoqn7l-75" edge="1">
          <mxGeometry width="160" relative="1" as="geometry">
            <mxPoint x="340" y="-810" as="sourcePoint" />
            <mxPoint x="340" y="-750" as="targetPoint" />
          </mxGeometry>
        </mxCell>
        <mxCell id="k9qatuvnpu8ZYcSoqn7l-77" value="" style="endArrow=none;html=1;rounded=0;exitX=1;exitY=0.5;exitDx=0;exitDy=0;" parent="1" source="k9qatuvnpu8ZYcSoqn7l-41" edge="1">
          <mxGeometry width="50" height="50" relative="1" as="geometry">
            <mxPoint x="600" y="-830" as="sourcePoint" />
            <mxPoint x="750" y="430" as="targetPoint" />
          </mxGeometry>
        </mxCell>
        <mxCell id="k9qatuvnpu8ZYcSoqn7l-78" value="" style="endArrow=none;html=1;rounded=0;exitX=1;exitY=0.5;exitDx=0;exitDy=0;" parent="1" source="k9qatuvnpu8ZYcSoqn7l-40" edge="1">
          <mxGeometry width="50" height="50" relative="1" as="geometry">
            <mxPoint x="600" y="-830" as="sourcePoint" />
            <mxPoint x="750" y="430" as="targetPoint" />
          </mxGeometry>
        </mxCell>
        <mxCell id="k9qatuvnpu8ZYcSoqn7l-79" value="Includes" style="endArrow=open;endSize=12;dashed=1;html=1;rounded=0;exitX=0.03;exitY=0.675;exitDx=0;exitDy=0;entryX=1;entryY=0;entryDx=0;entryDy=0;exitPerimeter=0;" parent="1" source="k9qatuvnpu8ZYcSoqn7l-40" target="k9qatuvnpu8ZYcSoqn7l-39" edge="1">
          <mxGeometry width="160" relative="1" as="geometry">
            <mxPoint x="378" y="-780" as="sourcePoint" />
            <mxPoint x="240" y="-708" as="targetPoint" />
          </mxGeometry>
        </mxCell>
        <mxCell id="k9qatuvnpu8ZYcSoqn7l-80" value="Includes" style="endArrow=open;endSize=12;dashed=1;html=1;rounded=0;exitX=0.27;exitY=0.975;exitDx=0;exitDy=0;entryX=0.5;entryY=0;entryDx=0;entryDy=0;exitPerimeter=0;" parent="1" source="k9qatuvnpu8ZYcSoqn7l-40" target="k9qatuvnpu8ZYcSoqn7l-38" edge="1">
          <mxGeometry width="160" relative="1" as="geometry">
            <mxPoint x="374" y="-786" as="sourcePoint" />
            <mxPoint x="242" y="-698" as="targetPoint" />
          </mxGeometry>
        </mxCell>
        <mxCell id="k9qatuvnpu8ZYcSoqn7l-81" value="Includes" style="endArrow=open;endSize=12;dashed=1;html=1;rounded=0;exitX=0.597;exitY=1.005;exitDx=0;exitDy=0;entryX=0.5;entryY=0;entryDx=0;entryDy=0;exitPerimeter=0;" parent="1" source="k9qatuvnpu8ZYcSoqn7l-40" target="k9qatuvnpu8ZYcSoqn7l-37" edge="1">
          <mxGeometry width="160" relative="1" as="geometry">
            <mxPoint x="402" y="-762" as="sourcePoint" />
            <mxPoint x="310" y="-640" as="targetPoint" />
          </mxGeometry>
        </mxCell>
        <mxCell id="k9qatuvnpu8ZYcSoqn7l-82" value="Ordinary" style="ellipse;whiteSpace=wrap;html=1;" parent="1" vertex="1">
          <mxGeometry x="200" y="30" width="120" height="80" as="geometry" />
        </mxCell>
        <mxCell id="k9qatuvnpu8ZYcSoqn7l-83" value="Extends" style="endArrow=open;endSize=12;dashed=1;html=1;rounded=0;exitX=0.05;exitY=0.66;exitDx=0;exitDy=0;entryX=0.577;entryY=0.005;entryDx=0;entryDy=0;exitPerimeter=0;entryPerimeter=0;" parent="1" source="k9qatuvnpu8ZYcSoqn7l-24" target="k9qatuvnpu8ZYcSoqn7l-82" edge="1">
          <mxGeometry width="160" relative="1" as="geometry">
            <mxPoint x="320" y="-34" as="sourcePoint" />
            <mxPoint x="234" y="-30" as="targetPoint" />
          </mxGeometry>
        </mxCell>
        <mxCell id="k9qatuvnpu8ZYcSoqn7l-84" value="Comfort" style="ellipse;whiteSpace=wrap;html=1;" parent="1" vertex="1">
          <mxGeometry x="485" y="40" width="120" height="80" as="geometry" />
        </mxCell>
        <mxCell id="k9qatuvnpu8ZYcSoqn7l-85" value="Extends" style="endArrow=open;endSize=12;dashed=1;html=1;rounded=0;exitX=0.977;exitY=0.7;exitDx=0;exitDy=0;entryX=0.308;entryY=0.03;entryDx=0;entryDy=0;exitPerimeter=0;entryPerimeter=0;" parent="1" source="k9qatuvnpu8ZYcSoqn7l-24" target="k9qatuvnpu8ZYcSoqn7l-84" edge="1">
          <mxGeometry width="160" relative="1" as="geometry">
            <mxPoint x="356" y="-37" as="sourcePoint" />
            <mxPoint x="279" as="targetPoint" />
          </mxGeometry>
        </mxCell>
        <mxCell id="k9qatuvnpu8ZYcSoqn7l-86" value="Business" style="ellipse;whiteSpace=wrap;html=1;" parent="1" vertex="1">
          <mxGeometry x="230" y="-110" width="100" height="60" as="geometry" />
        </mxCell>
        <mxCell id="k9qatuvnpu8ZYcSoqn7l-87" value="Extends" style="endArrow=open;endSize=12;dashed=1;html=1;rounded=0;exitX=0.037;exitY=0.235;exitDx=0;exitDy=0;entryX=0.7;entryY=0.007;entryDx=0;entryDy=0;exitPerimeter=0;entryPerimeter=0;" parent="1" source="k9qatuvnpu8ZYcSoqn7l-24" target="k9qatuvnpu8ZYcSoqn7l-86" edge="1">
          <mxGeometry width="160" relative="1" as="geometry">
            <mxPoint x="356" y="-87" as="sourcePoint" />
            <mxPoint x="279" y="40" as="targetPoint" />
          </mxGeometry>
        </mxCell>
      </root>
    </mxGraphModel>
  </diagram>
</mxfile>
